<?xml version="1.0" standalone="no"?>
<!DOCTYPE svg PUBLIC "-//W3C//DTD SVG 20010904//EN"
 "http://www.w3.org/TR/2001/REC-SVG-20010904/DTD/svg10.dtd">
<svg version="1.0" xmlns="http://www.w3.org/2000/svg"
 width="519.000000pt" height="670.000000pt" viewBox="0 0 519.000000 670.000000"
 preserveAspectRatio="xMidYMid meet">

<g transform="translate(0.000000,670.000000) scale(0.100000,-0.100000)"
fill="#000000" stroke="none">
<path d="M2314 6551 c-73 -21 -164 -65 -259 -127 -38 -25 -83 -53 -98 -62
-108 -64 -213 -140 -268 -192 -35 -33 -102 -93 -149 -132 -111 -95 -240 -229
-240 -250 0 -9 -4 -20 -10 -23 -5 -3 -10 -17 -10 -30 0 -13 -4 -27 -10 -30 -5
-3 -10 -16 -10 -29 0 -12 -5 -27 -11 -33 -8 -8 -10 -43 -7 -102 4 -84 6 -92
33 -117 16 -14 47 -32 69 -38 l41 -12 1 -64 c3 -105 14 -279 25 -358 5 -40 9
-108 9 -151 0 -42 9 -122 21 -176 24 -116 75 -282 89 -290 12 -8 13 -45 1 -45
-4 0 -19 8 -32 19 -26 20 -84 51 -95 51 -12 0 101 -99 114 -100 6 0 12 -9 12
-20 0 -12 11 -32 24 -45 26 -26 30 -40 26 -90 -2 -25 -3 -26 -9 -10 -16 48
-56 115 -68 115 -8 0 -19 5 -26 10 -45 38 -107 78 -135 88 -29 10 -34 9 -48
-13 -9 -13 -17 -48 -17 -77 -3 -72 22 -272 34 -276 5 -2 9 -12 9 -23 0 -11 4
-27 9 -37 5 -9 21 -50 37 -90 25 -67 84 -152 105 -152 5 0 9 13 9 30 0 21 -11
39 -40 66 -58 54 -80 107 -87 212 -3 51 -1 103 5 123 6 19 13 59 17 89 7 68
16 84 43 76 15 -5 24 -22 34 -68 12 -57 15 -62 46 -70 43 -12 43 -38 -1 -38
-48 0 -73 -28 -80 -91 -12 -107 7 -153 86 -204 67 -44 98 -105 128 -253 14
-73 6 -94 -51 -136 l-25 -18 40 7 c84 14 78 20 103 -90 43 -184 79 -287 132
-373 27 -46 50 -87 50 -92 0 -5 13 -22 30 -38 16 -17 32 -41 34 -54 3 -12 5
-25 6 -28 2 -3 2 -9 1 -14 -1 -5 5 -6 13 -3 10 4 16 -1 18 -16 2 -12 9 -21 16
-20 17 4 15 -14 -3 -21 -24 -9 -17 -24 13 -29 25 -4 26 -5 5 -12 -13 -4 -19
-13 -16 -21 3 -8 9 -11 14 -9 12 8 46 -29 41 -44 -3 -8 4 -10 25 -6 15 4 23 3
17 -2 -15 -11 -26 -55 -11 -46 6 4 8 0 4 -10 -5 -12 -1 -17 13 -17 11 0 20 -5
20 -12 0 -6 8 -20 17 -30 13 -14 14 -21 5 -30 -9 -9 -12 -7 -12 9 0 18 -5 21
-33 19 -18 -2 -42 -8 -53 -15 -16 -10 -13 -10 19 -5 40 7 52 -9 15 -20 l-23
-6 24 -20 c13 -11 32 -20 43 -20 15 0 18 -5 13 -21 -5 -14 -1 -25 12 -34 17
-14 17 -14 -1 -15 -17 0 -16 -3 6 -25 19 -19 24 -32 20 -52 -4 -19 -7 -23 -10
-10 -2 9 -10 17 -18 17 -9 0 -12 -5 -8 -11 5 -8 -6 -9 -37 -4 l-44 7 50 -39
c28 -22 60 -44 73 -47 30 -10 72 -56 65 -72 -3 -8 -14 -14 -24 -14 -10 0 -19
-7 -19 -15 0 -8 -4 -15 -9 -15 -5 0 -11 7 -15 15 -3 8 -13 15 -23 15 -15 0
-16 2 -3 10 11 7 0 9 -36 4 -34 -4 -54 -2 -58 5 -4 6 -16 11 -26 11 -11 0 -30
11 -44 25 -14 14 -34 25 -45 25 -14 0 -21 8 -23 27 -2 17 -12 32 -27 39 -13 7
-28 21 -35 32 -6 10 -24 39 -41 63 -16 24 -28 48 -26 54 1 5 -5 15 -14 21 -9
7 -16 14 -15 16 3 5 -10 78 -27 149 -16 69 -15 113 7 307 8 61 11 115 8 118
-10 9 -128 -58 -160 -91 -16 -16 -36 -46 -45 -65 -23 -54 -12 -167 27 -276
114 -321 167 -485 209 -655 l48 -193 64 -39 c77 -47 132 -98 166 -154 14 -24
29 -43 34 -43 5 0 9 -6 9 -14 0 -7 7 -19 15 -26 11 -10 17 -9 29 3 8 8 12 18
8 22 -4 5 -2 5 4 2 15 -8 24 -56 13 -63 -32 -20 37 -94 176 -188 142 -98 253
-194 309 -271 27 -36 50 -64 52 -63 12 12 137 205 164 253 35 62 98 147 114
154 5 2 28 21 51 42 23 22 46 39 51 39 5 0 36 28 69 61 33 34 90 88 126 120
60 54 68 66 93 142 32 93 51 140 72 179 7 14 14 33 14 42 0 9 6 27 13 39 8 12
22 51 32 87 9 36 21 74 26 85 20 49 58 184 64 228 5 40 10 48 24 44 15 -4 17
3 15 47 -7 138 -22 214 -53 269 -38 67 -39 107 -5 167 118 203 190 382 249
616 l28 110 67 0 c55 -1 72 3 103 24 39 27 77 92 77 133 0 15 6 46 14 69 14
42 62 258 87 386 13 70 7 250 -10 294 -13 34 -43 51 -104 58 l-49 5 21 27 c37
47 52 109 62 251 8 134 21 216 55 348 18 73 36 217 29 230 -3 4 -8 59 -10 121
-8 174 -29 226 -170 398 -33 41 -72 91 -85 110 -38 56 -224 261 -275 305 -64
54 -128 96 -200 127 -102 46 -288 108 -340 114 -27 3 -68 9 -90 14 -51 12
-109 18 -270 31 -71 5 -150 16 -174 24 -59 20 -199 18 -277 -4z m-1014 -851
c0 -5 -4 -10 -10 -10 -5 0 -10 5 -10 10 0 6 5 10 10 10 6 0 10 -4 10 -10z m1
-206 c10 -13 10 -17 -1 -24 -15 -9 -30 4 -30 28 0 17 15 15 31 -4z m17 -62 c3
-9 -2 -13 -14 -10 -9 1 -19 9 -22 16 -3 9 2 13 14 10 9 -1 19 -9 22 -16z
m1004 -19 c11 -9 24 -18 31 -19 7 -1 20 -5 30 -9 13 -6 16 -3 11 9 -16 42 130
42 177 0 15 -13 22 -14 33 -5 19 16 36 6 36 -20 0 -12 7 -19 20 -19 11 0 28
-8 38 -17 9 -10 27 -17 39 -15 25 4 83 -24 83 -39 0 -6 4 -8 9 -5 5 3 14 -1
21 -9 7 -8 23 -15 36 -15 16 0 22 -5 18 -14 -3 -9 6 -16 28 -20 30 -7 31 -8
12 -16 -33 -13 -39 -30 -10 -30 13 0 27 6 29 13 3 6 6 1 6 -12 1 -13 -7 -30
-16 -37 -16 -12 -16 -13 9 -14 17 0 29 -7 33 -19 3 -11 13 -22 21 -25 24 -9 6
-26 -29 -27 -29 0 -30 -1 -9 -9 12 -5 22 -15 22 -21 0 -6 9 -9 20 -6 23 6 24
3 8 -22 -12 -20 -5 -51 12 -51 6 0 8 5 5 10 -3 6 1 10 9 10 21 0 29 -17 11
-24 -27 -10 -16 -23 25 -30 30 -5 44 -13 52 -30 6 -14 16 -22 24 -19 8 3 14
-1 14 -10 0 -8 15 -20 33 -27 29 -10 30 -12 14 -21 -17 -10 -17 -12 10 -26 66
-36 103 -53 118 -53 8 0 15 -4 15 -10 0 -5 -4 -10 -10 -10 -5 0 -7 -6 -4 -14
7 -17 -35 -29 -52 -15 -9 7 -20 6 -37 -6 -13 -8 -38 -17 -54 -19 -48 -6 -112
-28 -124 -43 -6 -7 -19 -13 -28 -13 -9 0 -21 -4 -27 -8 -5 -5 -42 -15 -81 -21
-40 -7 -75 -17 -79 -22 -3 -5 -13 -9 -24 -9 -10 0 -20 -6 -23 -14 -3 -7 -24
-18 -47 -24 -36 -9 -42 -8 -53 9 -7 11 -28 22 -49 26 -21 3 -38 9 -38 13 0 4
-33 6 -72 4 -40 -2 -111 1 -158 6 -225 24 -325 29 -375 17 -52 -12 -155 -71
-155 -89 0 -5 -7 -16 -15 -24 -17 -18 -18 -24 -6 -43 8 -12 12 -12 25 -2 18
15 143 18 158 3 8 -8 6 -15 -5 -26 -9 -9 -19 -16 -22 -16 -9 0 -99 -73 -104
-84 -2 -5 -12 -17 -23 -28 -11 -11 -17 -26 -14 -33 3 -8 0 -15 -6 -17 -7 -3
-8 -10 -3 -17 6 -10 29 -12 88 -9 45 3 96 2 114 -2 40 -9 48 -2 26 22 -15 17
-15 19 2 38 10 11 21 20 24 20 4 0 17 -18 31 -41 17 -26 34 -42 53 -46 15 -3
27 -9 27 -14 0 -10 -61 0 -74 12 -16 14 -39 10 -33 -5 3 -8 1 -16 -6 -19 -7
-2 8 -11 33 -19 l45 -15 -40 -12 c-22 -6 -59 -11 -82 -11 -58 0 -56 -22 2 -44
29 -11 73 -17 122 -17 110 0 156 17 363 136 37 22 49 37 66 86 35 98 102 126
180 76 48 -30 57 -59 49 -153 -3 -32 -1 -90 5 -129 6 -38 13 -79 15 -91 1 -12
11 -36 21 -55 27 -52 21 -137 -12 -166 -14 -13 -36 -23 -50 -23 -14 0 -35 -5
-47 -12 -23 -13 -26 -14 -72 -23 -16 -3 -32 -10 -35 -15 -3 -5 -21 -8 -40 -8
-19 1 -51 -5 -70 -12 -19 -7 -54 -19 -77 -27 -24 -8 -43 -19 -43 -24 0 -11 30
-41 78 -79 33 -25 43 -46 18 -37 -7 3 -20 -2 -29 -11 -8 -10 -27 -28 -41 -41
-14 -13 -26 -34 -26 -47 0 -15 -6 -24 -15 -24 -8 0 -15 5 -15 10 0 6 -9 10
-20 10 -14 0 -18 -5 -13 -17 5 -15 3 -16 -8 -5 -7 6 -21 12 -31 12 -10 0 -18
7 -18 15 0 14 -3 14 -30 0 -16 -9 -30 -20 -30 -25 0 -5 -8 -9 -17 -8 -40 3
-53 -4 -68 -37 -10 -21 -14 -45 -11 -62 4 -18 1 -36 -8 -48 -18 -24 -21 -65
-5 -65 8 0 10 -12 6 -35 -3 -19 -2 -37 3 -40 16 -10 -1 -35 -24 -35 -21 -1
-21 -1 -2 -15 13 -9 16 -19 10 -24 -13 -13 -56 -17 -72 -7 -7 4 -25 5 -38 2
-17 -5 -23 -3 -19 4 4 6 -1 22 -10 36 -9 14 -13 33 -10 43 4 12 0 21 -11 25
-13 5 -15 14 -10 46 3 21 2 41 -4 45 -5 3 -7 12 -3 20 3 9 -1 15 -11 15 -9 0
-16 -4 -16 -10 0 -5 -4 -10 -10 -10 -6 0 -7 18 -4 43 5 34 2 46 -15 64 -12 12
-20 28 -19 35 2 8 -10 12 -34 12 -21 1 -38 -3 -38 -7 0 -5 -5 -5 -10 -2 -5 3
-10 19 -10 36 0 16 -4 29 -10 29 -5 0 -10 6 -10 14 0 20 -21 31 -30 16 -4 -6
-10 -12 -13 -13 -9 -3 -47 74 -47 95 0 9 -4 19 -9 22 -5 3 -11 18 -14 33 -2
16 -18 89 -36 164 -36 156 -39 251 -16 399 21 128 43 308 52 404 7 83 12 96
73 154 19 18 35 38 35 45 0 7 10 13 22 15 19 3 21 8 18 44 -2 23 -8 44 -14 47
-5 4 -8 29 -7 56 2 35 -2 56 -13 69 -12 14 -16 39 -14 109 1 85 3 93 27 114
14 12 26 26 26 31 0 5 9 17 20 27 11 10 20 24 20 32 0 13 5 14 60 17 19 1 42
14 68 40 35 33 44 37 71 31 22 -5 39 -2 56 9 14 9 25 14 25 10 0 -3 12 1 26
11 17 11 37 15 54 11 18 -3 33 0 40 9 16 19 29 19 52 -2z m-187 -1090 c-38
-14 -86 -36 -107 -49 -46 -30 -68 -31 -43 -4 43 48 114 77 185 78 31 1 26 -2
-35 -25z m1093 -74 c12 -19 11 -19 -8 -9 -11 6 -20 15 -20 20 0 17 15 11 28
-11z m440 -175 c27 -8 29 -37 3 -61 -10 -10 -21 -27 -23 -38 -2 -13 -14 -22
-33 -25 -29 -5 -30 -7 -29 -57 0 -43 -4 -54 -22 -64 -12 -6 -25 -20 -27 -31
-3 -11 -10 -17 -16 -14 -5 4 -13 1 -16 -4 -4 -6 -19 -16 -33 -22 -30 -12 -132
-19 -146 -10 -5 3 -23 6 -39 8 -17 1 -34 9 -39 19 -5 9 -21 20 -34 26 -14 5
-22 13 -19 19 3 5 -3 10 -15 10 -12 0 -24 9 -30 24 -5 13 -14 27 -19 31 -6 3
-11 15 -11 26 0 10 -6 19 -13 19 -10 0 -14 18 -13 70 1 65 3 70 23 70 12 0 25
-5 28 -11 4 -6 14 -8 22 -5 8 4 32 2 52 -3 93 -25 248 -16 331 18 29 11 84 14
118 5z m-2085 -244 c3 -30 8 -68 13 -85 7 -27 6 -29 -10 -16 -9 8 -26 26 -36
41 -19 26 -19 30 -4 80 18 62 30 56 37 -20z m1434 -25 c33 -17 63 -55 63 -80
0 -25 -31 -31 -46 -9 -7 10 -20 26 -28 34 -14 15 -33 70 -24 70 3 0 19 -7 35
-15z m-770 -492 c3 -9 -8 -10 -35 -4 -2 1 0 6 3 12 8 12 27 7 32 -8z m-29 -45
c-6 -18 -28 -21 -28 -4 0 9 7 16 16 16 9 0 14 -5 12 -12z m769 -99 c-9 -5 -21
-8 -26 -5 -5 3 -11 -1 -15 -9 -3 -8 -12 -15 -21 -15 -9 0 -33 -8 -54 -18 -36
-18 -98 -23 -284 -26 -26 -1 -47 -4 -47 -8 0 -11 108 -48 131 -45 12 1 24 -3
26 -10 3 -7 -18 -16 -54 -23 -32 -7 -63 -16 -69 -21 -7 -6 -16 -9 -20 -7 -15
3 -74 -13 -74 -21 0 -5 11 -20 24 -34 21 -22 22 -28 10 -38 -8 -7 -13 -18 -10
-26 9 -22 -39 -39 -70 -24 -22 10 -31 9 -50 -4 -28 -18 -32 -38 -6 -33 20 3
65 -26 55 -35 -3 -4 5 -7 20 -7 14 0 27 -4 29 -10 2 -5 18 -6 41 -1 20 5 37 6
37 2 0 -3 14 -6 30 -6 20 0 32 6 36 17 7 22 30 13 38 -15 3 -14 -1 -25 -15
-35 -10 -7 -17 -18 -14 -23 4 -5 -7 -9 -23 -9 -22 0 -31 -6 -35 -22 -4 -12 -1
-25 4 -29 21 -13 -6 -16 -30 -3 -22 11 -22 12 -5 23 24 13 9 14 -16 1 -11 -6
-16 -17 -13 -28 6 -23 -37 -39 -49 -19 -5 9 -12 9 -25 1 -10 -5 -44 -10 -75
-9 -45 1 -61 5 -73 20 -8 11 -12 26 -10 33 3 9 -1 11 -15 7 -23 -7 -28 13 -8
33 9 9 8 12 -5 12 -9 0 -17 -4 -17 -10 0 -5 -7 -7 -15 -5 -51 16 -50 16 -35
25 12 7 12 12 -3 28 -10 11 -26 18 -35 15 -14 -3 -17 4 -18 49 0 29 4 56 9 59
13 9 -1 29 -19 29 -23 0 -16 18 9 23 l22 4 -24 10 c-15 6 -20 12 -14 16 18 11
43 -3 43 -24 0 -13 7 -19 25 -19 13 0 29 -8 34 -17 9 -15 12 -16 20 -4 5 8 7
20 4 28 -3 7 2 13 11 13 9 0 16 4 16 9 0 6 -16 7 -35 4 -39 -6 -45 4 -15 30
11 9 20 28 20 42 0 17 15 40 44 68 24 24 45 52 48 63 2 14 13 20 43 21 22 2
83 6 136 9 53 3 132 2 175 -4 60 -8 99 -7 164 3 109 17 162 19 137 4z m-1052
-149 c3 -5 1 -10 -4 -10 -6 0 -11 5 -11 10 0 6 2 10 4 10 3 0 8 -4 11 -10z
m55 -134 c0 -11 -19 -15 -25 -6 -3 5 1 10 9 10 9 0 16 -2 16 -4z m122 -39 c4
-6 4 -15 2 -19 -10 -16 -29 -7 -41 18 -11 23 -10 24 10 18 12 -4 25 -11 29
-17z m-137 3 c3 -5 2 -10 -4 -10 -5 0 -13 5 -16 10 -3 6 -2 10 4 10 5 0 13 -4
16 -10z m92 -65 c0 -8 -4 -15 -8 -15 -11 0 -20 16 -12 24 11 11 20 7 20 -9z
m94 -471 l34 -15 -34 5 c-18 4 -40 6 -48 6 -8 0 -11 5 -8 10 8 14 17 13 56 -6z
m159 -379 c0 -8 -4 -15 -9 -15 -13 0 -22 16 -14 24 11 11 23 6 23 -9z m-210
-546 c0 -11 -4 -17 -10 -14 -5 3 -10 13 -10 21 0 8 5 14 10 14 6 0 10 -9 10
-21z m17 -41 c-3 -8 -6 -5 -6 6 -1 11 2 17 5 13 3 -3 4 -12 1 -19z m138 -33
c13 -5 15 -9 8 -12 -7 -3 -13 -11 -13 -18 0 -7 -7 -15 -15 -19 -11 -4 -15 1
-15 17 0 12 -7 31 -15 41 -20 26 -6 44 14 19 9 -11 25 -24 36 -28z m25 -45 c0
-5 -2 -10 -4 -10 -3 0 -8 5 -11 10 -3 6 -1 10 4 10 6 0 11 -4 11 -10z m-75
-10 c3 -5 1 -10 -4 -10 -6 0 -11 5 -11 10 0 6 2 10 4 10 3 0 8 -4 11 -10z m59
-46 c16 -15 22 -44 9 -44 -12 0 -43 33 -43 47 0 18 15 17 34 -3z m226 -24 c0
-5 -4 -10 -10 -10 -5 0 -10 5 -10 10 0 6 5 10 10 10 6 0 10 -4 10 -10z m-121
-27 c0 -25 -1 -26 -9 -8 -12 27 -12 35 0 35 6 0 10 -12 9 -27z m181 -22 c0
-11 -9 -26 -19 -33 -14 -10 -18 -21 -14 -41 5 -26 13 -31 41 -28 10 2 17 -27
13 -53 -1 -4 4 -14 10 -22 25 -30 -2 -25 -30 5 -41 44 -70 93 -64 110 3 7 -1
17 -8 22 -11 7 -9 10 8 15 11 3 23 14 26 25 7 25 37 25 37 0z m-200 -1 c0 -5
-2 -10 -4 -10 -3 0 -8 5 -11 10 -3 6 -1 10 4 10 6 0 11 -4 11 -10z m270 -50
c0 -5 7 -10 15 -10 8 0 15 -4 15 -10 0 -5 -16 -10 -35 -10 -38 0 -38 0 -29 24
7 17 34 22 34 6z m83 -59 c8 -8 8 -11 -1 -11 -7 0 -12 -8 -12 -18 0 -10 -7
-27 -15 -38 -14 -18 -14 -18 -15 10 0 21 -4 27 -15 22 -11 -4 -15 2 -15 23 0
26 3 28 31 26 16 -1 35 -7 42 -14z m137 -1 c0 -5 -5 -10 -11 -10 -5 0 -7 5 -4
10 3 6 8 10 11 10 2 0 4 -4 4 -10z"/>
<path d="M3150 4765 c0 -8 5 -15 10 -15 6 0 10 7 10 15 0 8 -4 15 -10 15 -5 0
-10 -7 -10 -15z"/>
<path d="M3230 4700 c0 -5 7 -10 15 -10 8 0 15 5 15 10 0 6 -7 10 -15 10 -8 0
-15 -4 -15 -10z"/>
<path d="M2278 3703 c-10 -2 -18 -13 -18 -24 0 -11 7 -19 18 -20 13 0 14 -2 2
-6 -8 -3 -23 -14 -33 -24 -10 -11 -29 -19 -42 -19 -34 0 -32 -20 3 -21 24 0
25 -1 7 -9 -12 -4 -27 -15 -34 -24 -11 -14 -11 -16 2 -16 9 0 27 4 41 10 20 7
24 6 19 -5 -3 -9 1 -15 11 -15 10 0 29 28 52 75 29 61 34 78 24 90 -13 15 -21
16 -52 8z"/>
<path d="M1995 3490 c-3 -5 1 -10 9 -10 9 0 16 5 16 10 0 6 -4 10 -9 10 -6 0
-13 -4 -16 -10z"/>
<path d="M3545 3931 c-6 -11 9 -23 19 -14 9 9 7 23 -3 23 -6 0 -12 -4 -16 -9z"/>
<path d="M2181 2811 c-10 -6 -9 -10 3 -14 8 -3 18 -2 21 3 8 13 -9 20 -24 11z"/>
<path d="M1654 1638 c3 -13 5 -25 6 -28 2 -3 2 -8 1 -12 0 -5 3 -8 9 -8 12 0
110 -100 110 -112 0 -5 9 -4 21 3 21 11 21 11 2 32 -11 12 -37 50 -59 84 -32
52 -44 63 -66 63 -23 0 -27 -4 -24 -22z"/>
<path d="M3800 1650 c-8 -5 -27 -10 -41 -10 -24 0 -27 -4 -37 -66 -10 -62 -41
-141 -66 -167 -21 -23 -66 -86 -66 -93 0 -4 11 3 25 16 l25 23 0 -26 c0 -39
23 -107 36 -107 45 0 211 69 237 98 19 22 16 144 -5 220 -9 29 -12 55 -7 57
11 7 109 -39 199 -93 99 -59 97 -58 81 -39 -7 10 -49 38 -92 64 -43 25 -76 50
-73 55 4 5 -3 12 -15 15 -12 3 -21 11 -21 19 0 32 -141 59 -180 34z"/>
<path d="M1525 1630 c-11 -4 -38 -13 -60 -19 -22 -6 -56 -21 -75 -33 -19 -12
-42 -21 -52 -19 -9 1 -19 -3 -23 -9 -3 -5 -14 -10 -25 -10 -22 0 -34 -26 -14
-34 8 -3 22 -3 32 0 16 5 16 5 0 -6 -10 -6 -18 -15 -18 -20 0 -14 62 -30 107
-27 27 2 44 -2 47 -10 3 -7 19 -13 35 -13 16 0 45 -9 63 -20 42 -24 142 -38
153 -20 8 13 7 17 -49 132 -21 42 -36 79 -34 81 2 2 -5 11 -14 20 -18 18 -41
21 -73 7z"/>
<path d="M3345 1049 c-9 -17 -15 -33 -13 -35 3 -2 12 12 21 31 21 43 13 47 -8
4z"/>
<path d="M2268 979 c51 -50 96 -88 100 -85 3 4 2 10 -4 14 -5 4 -19 21 -29 38
-19 31 -134 124 -151 124 -5 0 33 -41 84 -91z"/>
<path d="M3230 910 c-7 -13 -7 -20 -1 -20 6 0 15 9 21 20 7 13 7 20 1 20 -6 0
-15 -9 -21 -20z"/>
<path d="M3087 825 c-33 -13 -64 -28 -70 -33 -7 -5 -25 -12 -40 -16 -20 -5
-27 -11 -23 -21 3 -8 1 -15 -3 -15 -5 0 -11 5 -13 11 -2 7 -12 7 -31 -2 -16
-7 -26 -18 -23 -26 3 -7 -1 -13 -10 -13 -8 0 -12 5 -9 10 4 6 -10 3 -29 -7
-20 -9 -36 -22 -36 -29 0 -7 -9 -10 -22 -8 -21 4 -22 4 -3 -5 12 -6 15 -10 6
-10 -8 -1 -12 -3 -9 -6 8 -8 79 35 73 45 -2 4 8 7 23 7 15 0 36 3 46 8 12 5
17 5 13 -1 -3 -5 3 -10 14 -10 19 0 19 1 2 13 -9 8 -23 11 -31 8 -7 -3 -10 0
-6 6 3 6 17 8 30 5 15 -4 26 -1 32 10 6 11 17 15 32 11 16 -4 20 -2 16 9 -6
15 2 18 44 16 19 -1 22 1 10 8 -12 7 -7 12 22 25 21 8 42 15 47 15 5 0 13 5
16 10 9 14 -2 12 -68 -15z"/>
<path d="M2630 762 c0 -5 9 -17 20 -27 15 -14 20 -15 20 -4 0 8 -9 20 -20 27
-11 7 -20 8 -20 4z"/>
</g>
</svg>
